<svg xmlns="http://www.w3.org/2000/svg" style="display:none">

<!-- Dark_Light_Mode Icon -->
<symbol id="dark_light_mode" viewBox="0 0 32 32">
<title>Dark_light_Mode</title>

<g data-name="Layer 14" id="Layer_14">

<path d="M18,27H14a2,2,0,0,1-2-2V21.16a10,10,0,0,1-6-9.47A10.14,10.14,0,0,1,15.69,2h0A10,10,0,0,1,26,12a10,10,0,0,1-6,9.16V25A2,2,0,0,1,18,27ZM15.75,4A8.12,8.12,0,0,0,8,11.75a8,8,0,0,0,5.33,7.79,1,1,0,0,1,.67.94V25h4V20.48a1,1,0,0,1,.67-.94A8,8,0,0,0,15.75,4Z"/>

<path d="M15,24V19.48a9,9,0,0,1-6-8.76c.09-3,1.71-4.93,4.52-6.32C9.49,4.47,7.12,8,7,11.72a9,9,0,0,0,6,8.76V25a1,1,0,0,0,1,1h4a1,1,0,0,0,1-1H16A1,1,0,0,1,15,24Z"/>

<path d="M19,30H13a1,1,0,0,1,0-2h6a1,1,0,0,1,0,2Z"/>

<path d="M20.85,11.47A1,1,0,0,0,20,11H18.87l1-1.45a1,1,0,0,0,.05-1A1,1,0,0,0,19,8H15a1,1,0,0,0-.89.55l-3,6A1,1,0,0,0,12,16h3v4a1,1,0,0,0,.77,1A.91.91,0,0,0,16,21a1,1,0,0,0,.89-.55l4-8A1,1,0,0,0,20.85,11.47Z"/>

<path d="M5,6a1,1,0,0,1-.71-.29l-2-2A1,1,0,0,1,3.71,2.29l2,2a1,1,0,0,1,0,1.42A1,1,0,0,1,5,6Z"/>

<path d="M4,13H3a1,1,0,0,1,0-2H4a1,1,0,0,1,0,2Z"/>

<path d="M3,21a1,1,0,0,1-.71-.29,1,1,0,0,1,0-1.42l2-2a1,1,0,0,1,1.42,1.42l-2,2A1,1,0,0,1,3,21Z"/>

<path d="M27,6a1,1,0,0,1-.71-.29,1,1,0,0,1,0-1.42l2-2a1,1,0,1,1,1.42,1.42l-2,2A1,1,0,0,1,27,6Z"/>

<path d="M29,13H28a1,1,0,0,1,0-2h1a1,1,0,0,1,0,2Z"/>

<path d="M29,21a1,1,0,0,1-.71-.29l-2-2a1,1,0,0,1,1.42-1.42l2,2a1,1,0,0,1,0,1.42A1,1,0,0,1,29,21Z"/>

</g>

</symbol>

<!-- contact-phone -->
<symbol id="contact-phone" viewBox="0 0 64 64" xml:space="preserve" version="1.1">
<title>Contact Phone</title>

<!-- Uploaded to: SVG Repo, www.svgrepo.com, Generator: SVG Repo Mixer Tools -->


<g id="_x32_5_attachment"/>

<g id="_x32_4_office"/>

<g id="_x32_3_pin"/>

<g id="_x32_2_business_card"/>

<g id="_x32_1_form"/>

<g id="_x32_0_headset"/>

<g id="_x31_9_video_call"/>

<g id="_x31_8_letter_box"/>

<g id="_x31_7_papperplane"/>

<g id="_x31_6_laptop"/>

<g id="_x31_5_connection"/>

<g id="_x31_4_phonebook"/>

<g id="_x31_3_classic_telephone"/>

<g id="_x31_2_sending_mail"/>

<g id="_x31_1_man_talking"/>

<g id="_x31_0_date"/>

<g id="_x30_9_review"/>

<g id="_x30_8_email"/>

<g id="_x30_7_information"/>

<g id="_x30_6_phone_talking">

<g>

<g>

<path d="M37.063,18.062h-0.0596c-0.5522,0-0.9702,0.4478-0.9702,1s0.4775,1,1.0298,1s1-0.4478,1-1S37.6152,18.062,37.063,18.062z     "/>

<path d="M45.1787,18.062H45.123c-0.5522,0-0.9722,0.4478-0.9722,1s0.4756,1,1.0278,1s1-0.4478,1-1S45.731,18.062,45.1787,18.062z     "/>

<path d="M53.2983,18.062h-0.0596c-0.5522,0-0.9702,0.4478-0.9702,1s0.4775,1,1.0298,1s1-0.4478,1-1     S53.8506,18.062,53.2983,18.062z"/>

<path d="M45.1953,45.9268c-5.1489-2.9038-6.6909-2.6665-10.6172-0.4468c-2.0146,1.3389-4.4404,0.5225-8.6563-2.9111     c-0.8276-0.6743-1.6592-1.4263-2.4688-2.2319c-0.8091-0.8125-1.5605-1.644-2.2344-2.4722     c-3.1782-3.8999-4.0435-7.459-3.0112-8.5317c3.042-3.271,2.3516-5.957-0.3335-10.7173c-1.6172-3.0591-3.3931-6.104-5.7568-6.8027     c-1.7139-0.5034-4.2588,0.8154-5.0166,1.3184c-1.9492,1.2983-3.8003,3.5947-4.8311,5.9937     c-1.896,4.4136-1.3931,9.7329-0.29,13.2397c1.812,5.749,6.1611,12.4063,11.6348,17.8086     c5.4043,5.4761,12.0615,9.8242,17.8081,11.6313c1.8154,0.5728,4.1167,0.9844,6.5283,0.9844c2.2437,0,4.583-0.3564,6.7124-1.271     c2.3989-1.0327,4.6938-2.8838,5.9888-4.8306c0.5039-0.7554,1.8276-3.2998,1.3184-5.021     C51.2754,49.3071,48.2305,47.5308,45.1953,45.9268z M44.2368,47.6821c1.8521,0.979,5.2998,2.8018,5.8149,4.5513     c0.1056,0.3564-0.0228,1.0059-0.2598,1.681l-13.5292-7.089C38.8073,45.4165,39.8377,45.2009,44.2368,47.6821z M11.5513,13.7314     c1.7524,0.5181,3.5752,3.9663,4.5674,5.8428c2.6213,4.647,2.613,6.1134,0.9274,8.0579L9.748,14.0356     c0.556-0.2056,1.1049-0.3412,1.499-0.3412C11.3633,13.6943,11.4658,13.7061,11.5513,13.7314z M43.873,59.6807     c-3.9175,1.6836-8.8311,1.1694-11.8501,0.2163c-5.4517-1.7144-11.8032-5.8765-16.9897-11.1328     c-0.0034-0.0034-0.0063-0.0063-0.0098-0.0098C9.7695,43.5698,5.606,37.2178,3.8872,31.7642     c-0.9497-3.0195-1.4619-7.9346,0.2202-11.8501c0.8441-1.9645,2.3123-3.8291,3.8699-4.948l7.923,14.7618     c-0.4362,2.3732,0.9189,5.9038,3.7676,9.4001c0.7153,0.8789,1.5122,1.7607,2.3711,2.623     c0.8594,0.856,1.7407,1.6528,2.6196,2.3687c3.0879,2.5153,6.3303,4.6262,9.3667,3.7915l14.8708,7.792     C47.7888,57.3002,45.8823,58.816,43.873,59.6807z"/>

<path d="M60.9551,10.771C56.3843,2.0591,45.5757-1.3105,36.8604,3.2568l-0.0005,0.0005     c-8.7119,4.5723-12.0825,15.3813-7.5137,24.0952c0.3311,0.6313,0.709,1.2549,1.1274,1.8613l-2.7012,4.6299     c-0.1885,0.3228-0.1812,0.7241,0.0195,1.0396c0.1997,0.3159,0.5596,0.4912,0.9321,0.4604l7.75-0.6851     c2.7095,1.5068,5.6899,2.2627,8.6748,2.2627c2.8374,0,5.6787-0.6836,8.293-2.0552     C62.1543,30.2944,65.5249,19.4854,60.9551,10.771z M52.5127,33.0952c-4.8472,2.543-10.5723,2.4214-15.3154-0.3252     c-0.1523-0.0884-0.3257-0.1348-0.501-0.1348c-0.0293,0-0.0586,0.0015-0.0879,0.0039l-6.1338,0.542l2.0532-3.519     c0.2017-0.3462,0.1777-0.7793-0.0615-1.1006c-0.5132-0.6899-0.9668-1.4092-1.3486-2.1377     c-4.0571-7.7373-1.0645-17.3354,6.6719-21.396l-0.0005,0.0005c7.7378-4.0581,17.3354-1.0635,21.395,6.6719     C63.2417,19.438,60.2485,29.0356,52.5127,33.0952z"/>

</g>

</g>

</g>

<g id="_x30_5_women_talking"/>

<g id="_x30_4_calling"/>

<g id="_x30_3_women"/>

<g id="_x30_2_writing"/>

<g id="_x30_1_chatting"/>


</symbol>

<symbol id="portfolio" version="1.0" viewBox="0 0 64 64" >
<title>Portfolio</title>

<path d="m26.5 36-13.1-.81a4 4 0 0 1-3.76-3.58L8.47 20.42a4 4 0 0 1 4-4.42h39.09a4 4 0 0 1 4 4.42l-1.2 11.19a4 4 0 0 1-3.76 3.58L37.5 36"/><path d="M52 34.92V48a4 4 0 0 1-4 4H16a4 4 0 0 1-4-4V34.85"/><path d="M27 16v-2a2 2 0 0 1 2-2h6a2 2 0 0 1 2 2v2"/><rect x="26.5" y="33.25" width="11" height="5.5" rx="2.75"/>
</symbol>

<symbol id="Services" viewBox="0 0 496 496" xml:space="preserve">
<title>Services</title>


<g>
	<g>
		<g>
			<path d="M482.344,264.968C491.024,256.288,496,244.272,496,232c0-12.272-4.976-24.288-13.656-32.968L416,132.688L340.688,208
				l32,32L240,372.688l-32-32L132.688,416l66.344,66.344C207.712,491.024,219.728,496,232,496c12.272,0,24.288-4.976,32.968-13.656
				l18.456-18.456C306.824,484.576,336.504,496,368,496c70.576,0,128-57.424,128-128c0-31.504-11.424-61.192-32.112-84.576
				L482.344,264.968z M363.312,208L416,155.312L428.688,168L376,220.688L363.312,208z M155.312,416L208,363.312L220.688,376
				L168,428.688L155.312,416z M271.832,452.848l-18.176,18.184C247.952,476.736,240.064,480,232,480
				c-8.064,0-15.952-3.264-21.656-8.968L179.312,440L232,387.312l8,8L395.312,240l-8-8L440,179.312l31.032,31.032
				C476.736,216.048,480,223.936,480,232c0,8.064-3.264,15.952-8.968,21.656l-18.176,18.176L271.832,452.848z M480,368
				c0,61.76-50.24,112-112,112c-27.232,0-52.984-9.656-73.344-27.344l158-158C470.344,315.008,480,340.76,480,368z"/>
			<path d="M208,336v-29.792c10.232-2.96,20.096-7.048,29.44-12.208l21.072,21.08l56.568-56.568L294,237.44
				c5.168-9.344,9.248-19.2,12.208-29.44H336v-80h-29.792c-2.96-10.232-7.048-20.096-12.208-29.44l21.08-21.072L258.512,20.92
				L237.44,42c-9.344-5.168-19.2-9.248-29.44-12.208V0h-80v29.792C117.768,32.752,107.904,36.84,98.56,42L77.488,20.92L20.92,77.488
				L42,98.56c-5.168,9.344-9.248,19.2-12.208,29.44H0v80h29.792c2.96,10.232,7.048,20.096,12.208,29.44l-21.08,21.072l56.568,56.568
				L98.56,294c9.344,5.168,19.2,9.248,29.44,12.208V336H208z M101.432,277.168l-5.376-3.28l-18.56,18.568l-33.944-33.944
				l18.568-18.56l-3.28-5.376c-6.92-11.328-12.008-23.592-15.12-36.448L42.24,192H16v-48h26.24l1.48-6.128
				c3.112-12.848,8.192-25.12,15.12-36.448l3.28-5.376l-18.568-18.56l33.944-33.944l18.56,18.568l5.376-3.28
				c11.328-6.92,23.592-12.008,36.448-15.12L144,42.24V16h48v26.24l6.128,1.48c12.848,3.112,25.12,8.192,36.448,15.12l5.376,3.28
				l18.56-18.568l33.944,33.944l-18.568,18.56l3.28,5.376c6.92,11.328,12.008,23.592,15.12,36.448l1.472,6.12H320v48h-26.24
				l-1.48,6.128c-3.112,12.848-8.192,25.12-15.12,36.448l-3.28,5.376l18.568,18.56l-33.944,33.944l-18.56-18.568l-5.376,3.28
				c-11.328,6.92-23.592,12.008-36.448,15.12L192,293.76V320h-48v-26.24l-6.128-1.48
				C125.024,289.168,112.76,284.088,101.432,277.168z"/>
			<path d="M256,168c0-48.52-39.48-88-88-88s-88,39.48-88,88s39.48,88,88,88S256,216.52,256,168z M96,168c0-39.704,32.296-72,72-72
				s72,32.296,72,72s-32.296,72-72,72S96,207.704,96,168z"/>
			
				<rect x="231.995" y="324.69" transform="matrix(-0.7071 0.7071 -0.7071 -0.7071 647.2864 403.8884)" width="16" height="22.624"/>
			
				<rect x="324.683" y="231.998" transform="matrix(-0.7071 -0.7071 0.7071 -0.7071 403.8752 647.2874)" width="22.624" height="16"/>
		</g>
	</g>
</g>
</symbol>

<symbol id="Schedule" viewBox="0 0 500.004 500.004" xml:space="preserve">
<title>Schedule</title>

<g>
	<g>
		<path d="M427.848,65.122c-0.488-0.208-1.02-0.324-1.58-0.324h-3.628c-2.208,0-4,1.792-4,4c0,2.208,1.792,4,4,4
			c21.588,0,34.492,20.444,34.492,40.204v260.584c0,21.532-13.86,36-34.492,36H81.044c-21.408,0-38.18-15.812-38.18-36V113.002
			c0-21.416,17.844-40.204,38.18-40.204h27.552c2.208,0,4-1.792,4-4c0-2.208-1.792-4-4-4H81.044
			c-25.032,0-46.18,22.076-46.18,48.204v260.584c0,24.672,20.284,44,46.18,44H422.64c25.02,0,42.492-18.092,42.492-44V113.002
			C465.132,90.894,451.3,68.082,427.848,65.122z"/>
	</g>
</g>
<g>
	<g>
		<path d="M372.032,64.802H127.968c-2.208,0-4,1.792-4,4s1.792,4,4,4h244.064c2.208,0,4-1.792,4-4S374.24,64.802,372.032,64.802z"/>
	</g>
</g>
<g>
	<g>
		<path d="M418.52,64.802h-27.116c-2.208,0-4,1.792-4,4s1.792,4,4,4h27.116c2.208,0,4-1.792,4-4S420.728,64.802,418.52,64.802z"/>
	</g>
</g>
<g>
	<g>
		<path d="M364.284,122.914H42.74c-2.208,0-4,1.792-4,4s1.792,4,4,4h321.544c2.212,0,4-1.792,4-4S366.492,122.914,364.284,122.914z"
			/>
	</g>
</g>
<g>
	<g>
		<path d="M461.132,122.914h-54.236c-2.208,0-4,1.792-4,4s1.792,4,4,4h54.236c2.208,0,4-1.792,4-4S463.34,122.914,461.132,122.914z"
			/>
	</g>
</g>
<g>
	<g>
		<path d="M325.544,169.398h-54.236c-2.208,0-4,1.792-4,4c0,2.208,1.792,4,4,4h54.236c2.208,0,4-1.792,4-4
			C329.544,171.19,327.752,169.398,325.544,169.398z"/>
	</g>
</g>
<g>
	<g>
		<path d="M325.544,231.382h-54.236c-2.208,0-4,1.792-4,4c0,2.208,1.792,4,4,4h54.236c2.208,0,4-1.792,4-4
			C329.544,233.174,327.752,231.382,325.544,231.382z"/>
	</g>
</g>
<g>
	<g>
		<path d="M325.544,293.366h-54.236c-2.208,0-4,1.792-4,4s1.792,4,4,4h54.236c2.208,0,4-1.792,4-4S327.752,293.366,325.544,293.366z
			"/>
	</g>
</g>
<g>
	<g>
		<path d="M325.544,355.35h-54.236c-2.208,0-4,1.792-4,4s1.792,4,4,4h54.236c2.208,0,4-1.792,4-4S327.752,355.35,325.544,355.35z"/>
	</g>
</g>
<g>
	<g>
		<path d="M422.396,169.398h-54.24c-2.208,0-4,1.792-4,4c0,2.208,1.792,4,4,4h54.24c2.208,0,4-1.792,4-4
			C426.396,171.19,424.604,169.398,422.396,169.398z"/>
	</g>
</g>
<g>
	<g>
		<path d="M422.396,231.382h-54.24c-2.208,0-4,1.792-4,4c0,2.208,1.792,4,4,4h54.24c2.208,0,4-1.792,4-4
			C426.396,233.174,424.604,231.382,422.396,231.382z"/>
	</g>
</g>
<g>
	<g>
		<path d="M422.396,293.366h-54.24c-2.208,0-4,1.792-4,4s1.792,4,4,4h54.24c2.208,0,4-1.792,4-4S424.604,293.366,422.396,293.366z"
			/>
	</g>
</g>
<g>
	<g>
		<path d="M422.396,355.35h-54.24c-2.208,0-4,1.792-4,4s1.792,4,4,4h54.24c2.208,0,4-1.792,4-4S424.604,355.35,422.396,355.35z"/>
	</g>
</g>
<g>
	<g>
		<path d="M131.84,169.398H81.48c-2.208,0-4,1.792-4,4c0,2.208,1.792,4,4,4h50.36c2.212,0,4-1.792,4-4
			C135.84,171.19,134.048,169.398,131.84,169.398z"/>
	</g>
</g>
<g>
	<g>
		<path d="M131.84,231.382H81.48c-2.208,0-4,1.792-4,4c0,2.208,1.792,4,4,4h50.36c2.212,0,4-1.792,4-4
			C135.84,233.174,134.048,231.382,131.84,231.382z"/>
	</g>
</g>
<g>
	<g>
		<path d="M131.84,293.366H81.48c-2.208,0-4,1.792-4,4s1.792,4,4,4h50.36c2.212,0,4-1.792,4-4S134.048,293.366,131.84,293.366z"/>
	</g>
</g>
<g>
	<g>
		<path d="M131.84,355.35H81.48c-2.208,0-4,1.792-4,4s1.792,4,4,4h50.36c2.212,0,4-1.792,4-4S134.048,355.35,131.84,355.35z"/>
	</g>
</g>
<g>
	<g>
		<path d="M228.692,169.398h-54.236c-2.208,0-4,1.792-4,4c0,2.208,1.792,4,4,4h54.236c2.212,0,4-1.792,4-4
			C232.692,171.19,230.9,169.398,228.692,169.398z"/>
	</g>
</g>
<g>
	<g>
		<path d="M228.692,231.382h-54.236c-2.208,0-4,1.792-4,4c0,2.208,1.792,4,4,4h54.236c2.212,0,4-1.792,4-4
			C232.692,233.174,230.9,231.382,228.692,231.382z"/>
	</g>
</g>
<g>
	<g>
		<path d="M228.692,293.366h-54.236c-2.208,0-4,1.792-4,4s1.792,4,4,4h54.236c2.212,0,4-1.792,4-4S230.9,293.366,228.692,293.366z"
			/>
	</g>
</g>
<g>
	<g>
		<path d="M228.692,355.35h-54.236c-2.208,0-4,1.792-4,4s1.792,4,4,4h54.236c2.212,0,4-1.792,4-4S230.9,355.35,228.692,355.35z"/>
	</g>
</g>
<g>
	<g>
		<path d="M118.284,39.802c-7.544,0-13.684,6.148-13.684,13.704v34.876c0,7.556,6.136,13.704,13.684,13.704
			s13.684-6.148,13.684-13.704V53.506C131.968,45.95,125.828,39.802,118.284,39.802z M123.968,88.382
			c0,3.144-2.552,5.704-5.684,5.704c-3.132,0-5.684-2.56-5.684-5.704V53.506c0-3.144,2.548-5.704,5.684-5.704
			c3.132,0,5.684,2.556,5.684,5.704V88.382z"/>
	</g>
</g>
<g>
	<g>
		<path d="M381.716,39.802c-7.544,0-13.684,6.148-13.684,13.704v34.876c0,7.556,6.14,13.704,13.684,13.704
			c7.544,0,13.688-6.148,13.688-13.704V53.506C395.404,45.95,389.264,39.802,381.716,39.802z M387.404,88.382
			c0,3.144-2.552,5.704-5.688,5.704s-5.684-2.56-5.684-5.704V53.506c0-3.144,2.548-5.704,5.684-5.704s5.688,2.556,5.688,5.704
			V88.382z"/>
	</g>
</g>
<g>
	<g>
		<path d="M434.312,64.802h-23.536c-2.208,0-4,1.792-4,4s1.792,4,4,4h23.536c31.272,0,57.692,27.532,57.692,60.124v263.048
			c0,31.528-25.344,56.228-57.692,56.228H69.652C36.232,452.202,8,426.454,8,395.974V132.926c0-31.468,29.384-60.124,61.652-60.124
			h15.704c2.208,0,4-1.792,4-4s-1.792-4-4-4H69.652C33.196,64.802,0,97.27,0,132.926v263.048c0,34.816,31.9,64.228,69.652,64.228
			h364.656c36.836,0,65.692-28.212,65.696-64.228V132.926C500.004,95.998,469.92,64.802,434.312,64.802z"/>
	</g>
</g>

</symbol>

<symbol id="hamburger" viewBox="0 0 24 24" preserveAspectRatio="xMidYMid meet" focusable="false" class="style-scope yt-icon" style="pointer-events: none; display: block; width: 100%; height: 100%;" >
<title>hamburger</title>
<g class="style-scope yt-icon"><path d="M21,6H3V5h18V6z M21,11H3v1h18V11z M21,17H3v1h18V17z" class="style-scope yt-icon"></path></g>

</symbol>

<symbol id="Meet_Me" viewBox="0 0 24 24" >
<title>Meet Me</title>

<!-- Uploaded to: SVG Repo, www.svgrepo.com, Generator: SVG Repo Mixer Tools -->

<g id="style=fill">
<g id="profile">
<path class="path-fill-1" id="vector (Stroke)" fill-rule="evenodd" clip-rule="evenodd" d="M6.75 6.5C6.75 3.6005 9.1005 1.25 12 1.25C14.8995 1.25 17.25 3.6005 17.25 6.5C17.25 9.3995 14.8995 11.75 12 11.75C9.1005 11.75 6.75 9.3995 6.75 6.5Z"/>
<path class="path-fill-1" id="rec (Stroke)" fill-rule="evenodd" clip-rule="evenodd" d="M4.25 18.5714C4.25 15.6325 6.63249 13.25 9.57143 13.25H14.4286C17.3675 13.25 19.75 15.6325 19.75 18.5714C19.75 20.8792 17.8792 22.75 15.5714 22.75H8.42857C6.12081 22.75 4.25 20.8792 4.25 18.5714Z" />
</g>
</g>

</symbol>

<symbol id="LinkedIn" viewBox="0 0 310 310" xml:space="preserve" >
<title>LinkedIn</title>


<g id="XMLID_801_">
	<path id="XMLID_802_" d="M72.16,99.73H9.927c-2.762,0-5,2.239-5,5v199.928c0,2.762,2.238,5,5,5H72.16c2.762,0,5-2.238,5-5V104.73
		C77.16,101.969,74.922,99.73,72.16,99.73z"/>
	<path id="XMLID_803_" d="M41.066,0.341C18.422,0.341,0,18.743,0,41.362C0,63.991,18.422,82.4,41.066,82.4
		c22.626,0,41.033-18.41,41.033-41.038C82.1,18.743,63.692,0.341,41.066,0.341z"/>
	<path id="XMLID_804_" d="M230.454,94.761c-24.995,0-43.472,10.745-54.679,22.954V104.73c0-2.761-2.238-5-5-5h-59.599
		c-2.762,0-5,2.239-5,5v199.928c0,2.762,2.238,5,5,5h62.097c2.762,0,5-2.238,5-5v-98.918c0-33.333,9.054-46.319,32.29-46.319
		c25.306,0,27.317,20.818,27.317,48.034v97.204c0,2.762,2.238,5,5,5H305c2.762,0,5-2.238,5-5V194.995
		C310,145.43,300.549,94.761,230.454,94.761z"/>
</g>
</symbol>

<symbol id="Github" viewBox="0 0 20 20"  >
<title>Github [#142]</title>   
    <desc>Created with Sketch.</desc>
    <defs>

</defs>
    <g id="Page-1" >
        <g id="Dribbble-Light-Preview" transform="translate(-140.000000, -7559.000000)" >
            <g id="icons" transform="translate(56.000000, 160.000000)">
                <path d="M94,7399 C99.523,7399 104,7403.59 104,7409.253 C104,7413.782 101.138,7417.624 97.167,7418.981 C96.66,7419.082 96.48,7418.762 96.48,7418.489 C96.48,7418.151 96.492,7417.047 96.492,7415.675 C96.492,7414.719 96.172,7414.095 95.813,7413.777 C98.04,7413.523 100.38,7412.656 100.38,7408.718 C100.38,7407.598 99.992,7406.684 99.35,7405.966 C99.454,7405.707 99.797,7404.664 99.252,7403.252 C99.252,7403.252 98.414,7402.977 96.505,7404.303 C95.706,7404.076 94.85,7403.962 94,7403.958 C93.15,7403.962 92.295,7404.076 91.497,7404.303 C89.586,7402.977 88.746,7403.252 88.746,7403.252 C88.203,7404.664 88.546,7405.707 88.649,7405.966 C88.01,7406.684 87.619,7407.598 87.619,7408.718 C87.619,7412.646 89.954,7413.526 92.175,7413.785 C91.889,7414.041 91.63,7414.493 91.54,7415.156 C90.97,7415.418 89.522,7415.871 88.63,7414.304 C88.63,7414.304 88.101,7413.319 87.097,7413.247 C87.097,7413.247 86.122,7413.234 87.029,7413.87 C87.029,7413.87 87.684,7414.185 88.139,7415.37 C88.139,7415.37 88.726,7417.2 91.508,7416.58 C91.513,7417.437 91.522,7418.245 91.522,7418.489 C91.522,7418.76 91.338,7419.077 90.839,7418.982 C86.865,7417.627 84,7413.783 84,7409.253 C84,7403.59 88.478,7399 94,7399" id="github-[#142]">

</path>
            </g>
        </g>
    </g>

</symbol>

<symbol id="Twitter" viewBox="0 0 50 50" >
<title>Twitter (X)</title>   
    
<path d="M 5.9199219 6 L 20.582031 27.375 L 6.2304688 44 L 9.4101562 44 L 21.986328 29.421875 L 31.986328 44 L 44 44 L 28.681641 21.669922 L 42.199219 6 L 39.029297 6 L 27.275391 19.617188 L 17.933594 6 L 5.9199219 6 z M 9.7167969 8 L 16.880859 8 L 40.203125 42 L 33.039062 42 L 9.7167969 8 z"/>
</symbol>


<symbol id="JavaScript" viewBox="0 0 512 512" enable-background="new 0 0 512 512" xml:space="preserve" xmlns:xlink="http://www.w3.org/1999/xlink" xmlns="http://www.w3.org/2000/svg">
<title>JavaScript</title>      

<g id="5151e0c8492e5103c096af88a51e7e7e">

<path display="inline" d="M218.195,257.521c0,64.719,4.624,119.1-27.309,151.283c-17.961,18.105-46.301,28.772-81.17,28.772
		c-57.192,0-88.947-27.862-109.215-66.416c19.512-12.459,39.452-24.502,59.775-36.154c8.292,23.188,36.291,49.258,67.888,33.21
		c20.027-10.18,17.715-41.04,17.715-74.537c0-69.549,0-149.78,0-212.528c-0.063-1.044-0.125-2.087,0.732-2.214
		c23.866,0,47.728,0,71.585,0C218.195,134.832,218.195,198.069,218.195,257.521z M399.727,215.462
		c-18.247-7.814-40.928-17.058-46.488-33.952c-6.233-18.934,4.396-34.533,16.231-39.841c26.023-11.688,57.038,7.556,63.463,27.301
		c19.583-11.657,39.103-23.384,56.826-36.896c-20.826-34.584-51.354-59.342-107.003-57.561
		c-30.64,0.979-53.657,10.652-70.841,25.088c-16.771,14.085-29.721,33.854-31.737,61.989
		c-6.025,84.212,56.988,105.708,110.695,129.137c16.93,7.385,35.751,14.842,43.54,29.517c16.061,30.282-12.389,50.26-36.898,52.397
		c-39.336,3.427-65.858-19.587-81.175-43.54c-19.133,11.86-39.938,22.045-58.298,34.683c25.537,44.908,67.409,73.98,132.831,73.793
		c66.74-0.188,116.219-32.366,120.281-92.977C516.677,262.216,454.956,239.105,399.727,215.462z">

</path>

</g>

</symbol>


<symbol id="React" viewBox="0 0 32 32" >
<title>React</title> 

<path d="M14.313 22.211c0.55 0.025 1.112 0.043 1.681 0.043 0.575 0 1.143-0.012 1.7-0.043-0.557 0.72-1.107 1.357-1.689 1.964l0.008-0.008c-0.579-0.6-1.135-1.238-1.659-1.902l-0.041-0.054zM8.615 21.411c1.083 0.275 2.404 0.509 3.752 0.653l0.131 0.011c0.825 1.133 1.659 2.13 2.554 3.068l-0.011-0.012c-1.311 1.463-3.080 2.491-5.081 2.86l-0.055 0.008c-0.004 0-0.008 0-0.012 0-0.248 0-0.482-0.061-0.687-0.169l0.008 0.004c-0.832-0.475-1.193-2.292-0.912-4.627 0.067-0.575 0.177-1.18 0.312-1.797zM23.398 21.398c0.118 0.474 0.229 1.078 0.308 1.692l0.009 0.086c0.287 2.334-0.067 4.149-0.892 4.634-0.184 0.102-0.404 0.162-0.638 0.162-0.023 0-0.046-0.001-0.069-0.002l0.003 0c-2.053-0.375-3.821-1.396-5.129-2.841l-0.007-0.008c0.879-0.923 1.707-1.918 2.466-2.965l0.058-0.084c1.476-0.154 2.799-0.392 4.088-0.717l-0.197 0.042zM9.784 17.666c0.25 0.49 0.512 0.978 0.8 1.468q0.431 0.731 0.881 1.428c-0.868-0.127-1.706-0.287-2.507-0.482 0.225-0.787 0.507-1.602 0.825-2.416zM22.212 17.641c0.331 0.821 0.612 1.64 0.845 2.434-0.8 0.196-1.645 0.362-2.519 0.487 0.3-0.469 0.6-0.952 0.881-1.447 0.281-0.487 0.544-0.985 0.795-1.475zM7.619 12.292c0.436 1.478 0.904 2.714 1.449 3.906l-0.075-0.182c-0.466 1.005-0.927 2.234-1.305 3.499l-0.052 0.205c-0.706-0.217-1.274-0.43-1.827-0.669l0.115 0.044c-2.164-0.921-3.564-2.132-3.564-3.092s1.4-2.177 3.564-3.094c0.525-0.225 1.1-0.428 1.694-0.617zM24.358 12.287c0.605 0.187 1.18 0.396 1.718 0.622 2.164 0.925 3.564 2.134 3.564 3.094-0.006 0.96-1.406 2.174-3.57 3.093-0.525 0.225-1.1 0.427-1.693 0.616-0.44-1.483-0.908-2.718-1.451-3.912l0.076 0.188c0.464-1.004 0.926-2.233 1.303-3.498l0.053-0.206zM20.53 11.444c0.869 0.129 1.706 0.287 2.507 0.484-0.225 0.79-0.506 1.602-0.825 2.416-0.25-0.487-0.512-0.978-0.8-1.467-0.281-0.49-0.581-0.967-0.881-1.432zM11.458 11.444c-0.3 0.471-0.6 0.953-0.88 1.45-0.281 0.487-0.544 0.977-0.794 1.467-0.331-0.82-0.612-1.637-0.845-2.433 0.8-0.187 1.643-0.354 2.518-0.482zM16 11.126c0.925 0 1.846 0.042 2.752 0.116q0.761 1.091 1.478 2.324 0.697 1.2 1.272 2.432c-0.385 0.819-0.807 1.637-1.266 2.437-0.475 0.825-0.966 1.61-1.475 2.337-0.91 0.079-1.832 0.122-2.762 0.122-0.925 0-1.846-0.044-2.752-0.116-0.507-0.727-1.002-1.505-1.478-2.324q-0.697-1.2-1.272-2.432c0.379-0.821 0.807-1.641 1.266-2.442 0.475-0.825 0.966-1.607 1.475-2.334 0.91-0.080 1.832-0.122 2.762-0.122zM15.981 7.845c0.58 0.6 1.136 1.237 1.659 1.901l0.040 0.053c-0.55-0.025-1.112-0.042-1.681-0.042-0.575 0-1.143 0.012-1.7 0.042 0.556-0.72 1.106-1.357 1.689-1.964l-0.008 0.008zM9.88 4.033c2.053 0.376 3.82 1.397 5.129 2.841l0.007 0.008c-0.879 0.924-1.707 1.919-2.466 2.968l-0.058 0.084c-1.475 0.153-2.798 0.389-4.086 0.714l0.196-0.042c-0.14-0.612-0.244-1.205-0.317-1.774-0.287-2.334 0.067-4.149 0.892-4.632 0.206-0.097 0.447-0.157 0.701-0.165l0.003-0zM22.090 4.008v0.008c0.013-0 0.028-0.001 0.044-0.001 0.239 0 0.464 0.059 0.662 0.163l-0.008-0.004c0.832 0.477 1.193 2.293 0.912 4.629-0.067 0.575-0.177 1.181-0.312 1.799-1.085-0.278-2.406-0.513-3.754-0.656l-0.128-0.011c-0.826-1.134-1.66-2.131-2.555-3.070l0.012 0.012c1.311-1.46 3.077-2.488 5.074-2.859l0.056-0.009zM22.096 2.646c-2.442 0.371-4.556 1.557-6.1 3.268l-0.008 0.009c-1.555-1.71-3.669-2.888-6.051-3.245l-0.056-0.007c-0.013-0-0.029-0-0.045-0-0.491 0-0.952 0.129-1.351 0.355l0.014-0.007c-1.718 0.991-2.103 4.079-1.216 7.954-3.804 1.175-6.278 3.053-6.278 5.032 0 1.987 2.487 3.87 6.302 5.036-0.88 3.89-0.487 6.983 1.235 7.973 0.378 0.217 0.832 0.344 1.315 0.344 0.022 0 0.044-0 0.065-0.001l-0.003 0c2.442-0.371 4.556-1.558 6.1-3.27l0.008-0.009c1.555 1.711 3.669 2.889 6.051 3.246l0.056 0.007c0.015 0 0.034 0 0.052 0 0.488 0 0.947-0.128 1.344-0.351l-0.014 0.007c1.717-0.99 2.103-4.078 1.216-7.954 3.79-1.165 6.264-3.047 6.264-5.029 0-1.987-2.487-3.87-6.302-5.039 0.88-3.886 0.487-6.982-1.235-7.973-0.382-0.219-0.84-0.348-1.328-0.348-0.013 0-0.026 0-0.039 0l0.002-0zM18.787 16.005c0 1.543-1.251 2.794-2.794 2.794s-2.794-1.251-2.794-2.794c0-1.543 1.251-2.794 2.794-2.794 0.772 0 1.47 0.313 1.976 0.818v0c0.506 0.506 0.818 1.204 0.818 1.976 0 0 0 0 0 0v0z"></path>

</symbol>

<symbol id="NodeJS" version="1.0" viewBox="0 0 24 24" xmlns="http://www.w3.org/2000/svg">
<title>NodeJS</title>

  <rect width="24" height="24"/>
  <path class="NodeJS" d="M12,1.85a1.62,1.62,0,0,0-.78.2L3.78,6.35A1.58,1.58,0,0,0,3,7.71v8.58a1.58,1.58,0,0,0,.78,1.36l2,1.12a3.24,3.24,0,0,0,1.71.47,2.07,2.07,0,0,0,2.21-2.33V8.44a.22.22,0,0,0-.22-.22H8.5a.22.22,0,0,0-.23.22v8.47c0,.66-.68,1.31-1.77.76l-2-1.17a.26.26,0,0,1-.11-.21V7.71a.24.24,0,0,1,.11-.21l7.44-4.29a.22.22,0,0,1,.22,0L19.55,7.5a.24.24,0,0,1,.11.21v8.58a.26.26,0,0,1-.11.21l-7.44,4.29a.24.24,0,0,1-.23,0L10,19.65a.26.26,0,0,0-.21,0,4.22,4.22,0,0,1-1.12.51c-.12,0-.31.11.07.32l2.48,1.47a1.55,1.55,0,0,0,1.56,0l7.44-4.29A1.58,1.58,0,0,0,21,16.29V7.71a1.58,1.58,0,0,0-.78-1.36l-7.44-4.3a1.59,1.59,0,0,0-.78-.2M14,8c-2.12,0-3.39.89-3.39,2.39s1.26,2.08,3.3,2.28c2.43.24,2.62.6,2.62,1.08,0,.83-.67,1.18-2.23,1.18-2,0-2.4-.49-2.55-1.47a.23.23,0,0,0-.22-.18h-1a.21.21,0,0,0-.21.22c0,1.24.68,2.74,3.94,2.74,2.35,0,3.7-.93,3.7-2.55s-1.08-2-3.37-2.34-2.54-.46-2.54-1,.2-1,1.91-1c1.5,0,2.09.33,2.32,1.36a.21.21,0,0,0,.21.17h1a.19.19,0,0,0,.15-.07.16.16,0,0,0,.05-.16C17.56,8.82,16.38,8,14,8Z"/>
</symbol>

<symbol id="HTML" viewBox="0 0 512 512" xml:space="preserve" >
<title>HTML</title>   


<g>
	<polygon class="st0" points="193.431,261.016 211.237,261.016 318.569,261.016 312.062,334.41 256,348.67 199.938,334.41 
		196.059,290.703 138.856,290.703 146.742,379.683 256,407.465 365.262,379.683 380.403,208.788 188.801,208.788 183.74,151.682 
		385.467,151.682 390.52,94.696 121.481,94.696 136.224,261.016 	"/>
	<path class="st0" d="M20.366,0l0.984,10.627l41.882,452.361L256,512l192.767-49.012L491.634,0H20.366z M402.505,423.462
		L256,460.713l-146.505-37.251L74.888,49.711h362.223L402.505,423.462z"/>
</g>
</symbol>


<symbol id="CSS" viewBox="0 0 24 24" >
<title>CSS</title>   

<path d="M8 5C7.44772 5 7 5.44772 7 6C7 6.55228 7.44772 7 8 7H12.2344L8.50386 9.13176C8.11017 9.35672 7.91712 9.81842 8.0335 10.2567C8.14988 10.6949 8.54657 11 9 11H13.8C13.9105 11 14 11.0895 14 11.2V13.5029C14 13.556 13.9789 13.6069 13.9414 13.6444L12.1414 15.4444C12.0633 15.5225 11.9367 15.5225 11.8586 15.4444L9.70711 13.2929C9.31658 12.9024 8.68342 12.9024 8.2929 13.2929C7.90237 13.6834 7.90237 14.3166 8.2929 14.7071L11.2929 17.7071C11.6834 18.0976 12.3166 18.0976 12.7071 17.7071L15.7071 14.7071C15.8946 14.5196 16 14.2652 16 14V10C16 9.44772 15.5523 9 15 9H12.7656L16.4961 6.86824C16.8898 6.64328 17.0829 6.18158 16.9665 5.74333C16.8501 5.30509 16.4534 5 16 5H8Z"/>
<path fill-rule="evenodd" clip-rule="evenodd" d="M4.30602 1C2.48038 1 1.07799 2.61696 1.33617 4.42426L2.90519 15.4074C3.00668 16.1178 3.35946 16.7683 3.89953 17.2409L10.0245 22.6002C11.1556 23.5899 12.8444 23.5899 13.9755 22.6002L20.1005 17.2409C20.6405 16.7683 20.9933 16.1178 21.0948 15.4074L22.6638 4.42426C22.922 2.61696 21.5196 1 19.694 1H4.30602ZM3.31607 4.14142C3.23001 3.53899 3.69747 3 4.30602 3H19.694C20.3025 3 20.77 3.53899 20.6839 4.14142L19.1149 15.1245C19.0811 15.3613 18.9635 15.5782 18.7835 15.7357L12.6585 21.095C12.2815 21.4249 11.7185 21.4249 11.3415 21.095L5.21653 15.7357C5.03651 15.5782 4.91892 15.3613 4.88509 15.1245L3.31607 4.14142Z"/>

</symbol>

<symbol id="GIT" viewBox="0 0 24 24" >
<title>GIT</title>   

<path fill-rule="evenodd" clip-rule="evenodd" d="M13.4142 3.82843C12.6332 3.04738 11.3668 3.04738 10.5858 3.82843L9.91421 4.5L11.482 6.06774C11.6472 6.02356 11.8208 6 12 6C13.1046 6 14 6.89543 14 8C14 8.17916 13.9764 8.35282 13.9323 8.51804L15.982 10.5677C16.1472 10.5236 16.3208 10.5 16.5 10.5C17.6046 10.5 18.5 11.3954 18.5 12.5C18.5 13.6046 17.6046 14.5 16.5 14.5C15.3954 14.5 14.5 13.6046 14.5 12.5C14.5 12.3208 14.5236 12.1472 14.5677 11.982L13 10.4142V15.2676C13.5978 15.6134 14 16.2597 14 17C14 18.1046 13.1046 19 12 19C10.8954 19 10 18.1046 10 17C10 16.2597 10.4022 15.6134 11 15.2676V9.73244C10.4022 9.38663 10 8.74028 10 8C10 7.82084 10.0236 7.64718 10.0677 7.48196L8.5 5.91421L3.82843 10.5858C3.04738 11.3668 3.04738 12.6332 3.82843 13.4142L10.5858 20.1716C11.3668 20.9526 12.6332 20.9526 13.4142 20.1716L20.1716 13.4142C20.9526 12.6332 20.9526 11.3668 20.1716 10.5858L13.4142 3.82843ZM9.17157 2.41421C10.7337 0.852115 13.2663 0.852119 14.8284 2.41422L21.5858 9.17157C23.1479 10.7337 23.1479 13.2663 21.5858 14.8284L14.8284 21.5858C13.2663 23.1479 10.7337 23.1479 9.17157 21.5858L2.41421 14.8284C0.852115 13.2663 0.852119 10.7337 2.41422 9.17157L9.17157 2.41421Z"/>
</symbol>

<symbol id="Review" viewBox="0 0 1920 1920" >
<title>Review</title> 

    <g fill-rule="evenodd">
        <path fill-rule="nonzero" d="M0 53v1813.33h1386.67v-320H1280v213.34H106.667V159.667H1280V373h106.67V53z"/>
        <path d="M1226.67 1439.67c113.33 0 217.48-39.28 299.6-104.96l302.37 302.65c20.82 20.84 54.59 20.85 75.42.04 20.84-20.82 20.86-54.59.04-75.43l-302.41-302.68c65.7-82.12 104.98-186.29 104.98-299.623 0-265.097-214.91-480-480-480-265.1 0-480.003 214.903-480.003 480 0 265.093 214.903 480.003 480.003 480.003Zm0-106.67c206.18 0 373.33-167.15 373.33-373.333 0-206.187-167.15-373.334-373.33-373.334-206.19 0-373.337 167.147-373.337 373.334 0 206.183 167.147 373.333 373.337 373.333Z"/>
    </g>
</symbol>

<symbol id="Graphics" viewBox="0 0 38.666 38.666"  xml:space="preserve">
<title>Graphics</title> 



<g>
	<path d="M36.666,4.333H2c-1.104,0-2,0.896-2,2v26c0,1.104,0.896,2,2,2h34.666c1.104,0,2-0.896,2-2v-26
		C38.666,5.228,37.771,4.333,36.666,4.333z M34.666,30.333H4v-22h30.666V30.333z M7.272,24.319l2.863-4.563
		c-0.226-0.382-0.364-0.821-0.364-1.298c0-1.414,1.147-2.562,2.563-2.562s2.563,1.147,2.563,2.562c0,0.419-0.11,0.808-0.288,1.157
		l1.714,2.143l2.278-5.793c-0.434-0.459-0.705-1.075-0.705-1.757c0-1.414,1.147-2.562,2.563-2.562s2.562,1.147,2.562,2.562
		c0,0.494-0.146,0.95-0.389,1.342l3.098,5.874l3.08-8.45c-0.26-0.399-0.414-0.877-0.414-1.391c0-1.414,1.146-2.562,2.562-2.562
		s2.562,1.147,2.562,2.562c0,1.188-0.812,2.179-1.91,2.468L27.391,25.63c-0.203,0.559-0.717,0.942-1.309,0.982
		c-0.591,0.045-1.15-0.271-1.428-0.797l-3.842-7.283l-2.646,6.732c-0.196,0.498-0.643,0.854-1.172,0.937
		c-0.529,0.075-1.061-0.129-1.396-0.546l-3.152-3.939l-2.634,4.197c-0.285,0.454-0.773,0.703-1.272,0.703
		c-0.272,0-0.548-0.074-0.796-0.229C7.043,25.946,6.832,25.021,7.272,24.319z"/>
</g>
</symbol>

<symbol id="Mentor" viewBox="0 0 64 64" >
<title>Mentor</title> 

<g>

<g>

<path d="M35.524,41.736L32,62h4l4-8l-2-3l3-2l1-9l-0.66-0.237C39.855,40.683,37.841,41.38,35.524,41.736z"/>

</g>

<g>

<path d="M28.476,41.736L32,62h-4l-4-8l2-3l-3-2l-1-9l0.66-0.237C24.145,40.683,26.159,41.38,28.476,41.736z    " />

</g>

<g>

<path d="M42.452,7H21.548c-1.073,1.328-1.909,2.87-2.421,4.578L19,12h26l-0.127-0.422    C44.361,9.87,43.525,8.328,42.452,7z" />

</g>

<g>

<path d="M48.214,40.685L47,40.28V17h2v-1c0-2.101-1.306-3.896-3.146-4.635l-0.022-0.074C43.984,5.136,38.426,1,32,1    S20.016,5.136,18.168,11.291l-0.022,0.074C16.306,12.104,15,13.899,15,16v1h2v13.049C16.745,30.017,16.486,30,16.224,30    c-0.956,0-1.912,0.226-2.767,0.653l-3.799,1.899l0.78,1.561c0.479,0.958,1.157,1.762,1.962,2.393    c-0.816,0.637-1.49,1.436-1.962,2.381l-0.78,1.561l3.547,1.773C11.815,43.523,11,45.355,11,47.324V63h42V47.324    C53,44.307,51.077,41.638,48.214,40.685z M51,47.324V53h-5.011C45.99,52.936,46,52.873,46,52.81c0-2.036-0.597-4.008-1.727-5.702    l-0.441-0.662l-1.664,1.109l0.441,0.662C43.519,49.582,44,51.17,44,52.81c0,1.278-0.302,2.559-0.874,3.702L42,58.764V61h-8.791    l3.518-18.468c1.971-0.403,3.695-1.053,5.054-1.884l5.802,1.934C49.626,43.263,51,45.169,51,47.324z M29.415,40.832l-0.059,0.01    C24.325,40.248,21,38.027,21,36c0-1.089,0.891-2.179,2.464-3.075C25.482,35.408,28.558,37,32,37s6.518-1.592,8.536-4.075    C42.109,33.821,43,34.911,43,36c0,2.365-4.518,5-11,5c-0.903,0-1.763-0.056-2.582-0.15L29.415,40.832z M21.042,26.829    C19.859,26.427,19,25.317,19,24c0-1.302,0.839-2.402,2-2.816V26C21,26.28,21.021,26.554,21.042,26.829z M29.765,17    c-2.076,1.141-4.393,1.808-6.765,1.957V17H29.765z M43,21.184c1.161,0.414,2,1.514,2,2.816c0,1.317-0.859,2.427-2.042,2.829    C42.979,26.554,43,26.28,43,26V21.184z M34.693,17h4.65c-1.378,0.968-2.948,1.608-4.615,1.867    C34.87,18.253,34.857,17.61,34.693,17z M23,20.957c3.508-0.197,6.905-1.419,9.736-3.504c0.197,0.629,0.055,1.342-0.443,1.84    L30.586,21H33c2.937,0,5.719-0.972,8-2.747V26c0,4.963-4.038,9-9,9s-9-4.037-9-9V20.957z M32,43c0.903,0,1.781-0.048,2.627-0.138    l-2.572,13.5l-2.291-13.469C30.491,42.959,31.234,43,32,43z M43.634,39.158C44.503,38.213,45,37.145,45,36    c0-1.791-1.209-3.467-3.346-4.733c0.399-0.728,0.708-1.51,0.935-2.326c0.9-0.107,1.722-0.445,2.411-0.966V36v3.613L43.634,39.158z     M45,20.026c-0.584-0.442-1.257-0.773-2-0.924V17h2V20.026z M32,3c5.229,0,9.787,3.18,11.618,8H20.382C22.213,6.18,26.771,3,32,3z     M20,13h24c1.304,0,2.416,0.836,2.829,2H17.171C17.584,13.836,18.696,13,20,13z M21,17v2.101c-0.743,0.152-1.416,0.482-2,0.924V17    H21z M19,27.974c0.689,0.521,1.511,0.859,2.411,0.966c0.227,0.816,0.536,1.598,0.935,2.326c-0.51,0.302-0.969,0.626-1.368,0.971    c-0.55-0.663-1.224-1.194-1.979-1.573V27.974z M14.352,32.442C14.93,32.153,15.578,32,16.224,32c1.369,0,2.638,0.667,3.422,1.784    c-0.317,0.531-0.51,1.087-0.591,1.658l-0.295,0.13C18.116,35.855,17.432,36,16.728,36c-1.833,0-3.488-0.973-4.38-2.556    L14.352,32.442z M14.383,37.586C15.124,37.846,15.91,38,16.728,38c0.887,0,1.748-0.172,2.568-0.495    c0.165,0.421,0.395,0.827,0.69,1.214l-0.278,0.417C18.93,40.303,17.627,41,16.224,41c-0.646,0-1.294-0.153-1.872-0.442    l-2.005-1.002C12.823,38.713,13.523,38.039,14.383,37.586z M15.573,42.962C15.789,42.985,16.007,43,16.224,43    c2.074,0,3.998-1.03,5.147-2.755l0.079-0.118c1.532,1.144,3.693,2.017,6.238,2.485L30.816,61H22v-2.236l-1.126-2.252    C20.302,55.368,20,54.088,20,52.81c0-1.64,0.481-3.228,1.391-4.593l0.441-0.662l-1.664-1.109l-0.441,0.662    C18.597,48.802,18,50.773,18,52.81c0,0.064,0.01,0.127,0.011,0.19H13v-5.676C13,45.498,13.985,43.844,15.573,42.962z M13,55h5.246    c0.182,0.833,0.458,1.645,0.839,2.406L20,59.236V61h-7V55z M44,61v-1.764l0.915-1.83c0.381-0.762,0.657-1.574,0.839-2.406H51v6H44    z"/>

<circle cx="27" cy="23" r="1"/>

<circle cx="37" cy="23" r="1"/>

<path d="M32,32c2.206,0,4-1.794,4-4h-2c0,1.103-0.897,2-2,2s-2-0.897-2-2h-2C28,30.206,29.794,32,32,32z"/>

</g>

</g>
</symbol>

<symbol id="Talk-confer" viewBox="0 0 128 128" xml:space="preserve" >
<title>Consult</title> 

<g>
	<circle cx="91.1" cy="25.2" r="8.7"/>
	<path d="M93.9,36.2c-0.2,0-1.1,0.1-1.1,0.1c-6.9,1.2-12.3,7.2-12.3,14.5c0,0.1-0.1,1.3,0,1.6c0,6.5,0.8,12.8,2.2,18.8
		c0.4,1.8,1.6,3.4,2.9,4.5V116c0,3,2.5,5.5,5.5,5.5c3,0,5.5-2.5,5.5-5.5V79.7c-0.6,0.1-1.1,0.2-1.7,0.2c-2,0-3.6-0.9-4.7-2.2
		c-0.7-1.1-1.3-2.5-1.3-3.8V49.3c0-0.7,0.4-1.1,1.1-1.1s1.1,0.4,1.1,1.1v24.5c0,2.1,1.8,3.8,3.8,3.8s3.8-1.8,3.8-3.8
		c0,0,0-32.7,0-32.8C98.8,38.3,96.6,36.2,93.9,36.2z"/>
	<circle cx="33" cy="25" r="8.5"/>
	<path d="M62.8,37.3l-14.5,5.3l-14-6.5c-0.8-0.3-1.6-0.5-2.5-0.5c-0.8,0-3.5,0-4.2,0c-3.5,0-6.3,2.9-6.4,6.4v26.4
		c0,1.8,0.7,3.4,1.9,4.6c0,0,2.3,43.1,2.3,43.3c0,2.9,2.3,5.2,5.2,5.2c2.7,0,5-2.1,5.2-4.8c0,0,0,0,0,0l0-0.3c0,0,0-0.1,0-0.1
		c0,0,0,0,0,0L37.1,72c0.7-1,1.1-2.3,1.1-3.5V46.1l8.4,3.9c0.9,0.5,2,0.5,2.9,0.2l16-5.8c2-0.8,2.9-2.8,2.3-4.8
		C66.8,37.6,64.7,36.6,62.8,37.3z"/>
	<path d="M56.9,5.2c-6.3,0-11.4,2.7-11.4,5.9c0,1.3,0.8,2.5,2.2,3.5l-3.1,5.7l7.3-3.9c1.5,0.4,3.2,0.6,5,0.6
		c6.3,0,11.4-2.7,11.4-5.9C68.3,7.8,63.2,5.2,56.9,5.2z"/>
</g>
</symbol>

<symbol id="email" viewBox="0 0 20 20">
<title>email</title>     
    
    <defs>

</defs>
    <g id="Page-1"  stroke-width="1" fill-rule="evenodd">
        <g id="Dribbble-Light-Preview" transform="translate(-260.000000, -959.000000)">
            <g id="icons" transform="translate(56.000000, 160.000000)">
                <path d="M208,801.586 C208,801.034 208.448,801 209,801 L219,801 C219.552,801 220,801.034 220,801.586 L220,802.835 L214.447,805.612 C214.166,805.752 213.834,805.752 213.553,805.612 L208,802.835 L208,801.586 Z M206.276,804.209 L213.106,807.624 C213.669,807.906 214.331,807.906 214.894,807.624 L221.724,804.209 C221.893,804.125 222,803.952 222,803.762 L222,800.586 C222,799.481 221.105,799 220,799 L208,799 C206.895,799 206,799.481 206,800.586 L206,803.762 C206,803.952 206.107,804.125 206.276,804.209 L206.276,804.209 Z M222,815.586 C222,816.138 221.552,817 221,817 L207,817 C206.448,817 206,816.138 206,815.586 L206,809.116 C206,808.745 206.391,808.503 206.724,808.669 C210.9,810.757 209.617,810.116 213.119,811.867 C213.674,812.145 214.328,812.149 214.886,811.877 C218.357,810.193 216.898,810.897 221.284,808.791 C221.615,808.631 222,808.873 222,809.242 L222,815.586 Z M221.106,806.518 L214.447,809.848 C214.166,809.988 213.834,809.988 213.553,809.848 L206.894,806.518 C205.565,805.854 204,806.821 204,808.307 L204,816.586 C204,817.691 204.895,819 206,819 L222,819 C223.105,819 224,817.691 224,816.586 L224,808.307 C224,806.821 222.435,805.854 221.106,806.518 L221.106,806.518 Z" id="email-[#1564]">

</path>
            </g>
        </g>
    </g>
</symbol>

<symbol id="Location" viewBox="-4 0 32 32" version="1.1" xmlns="http://www.w3.org/2000/svg" xmlns:xlink="http://www.w3.org/1999/xlink" xmlns:sketch="http://www.bohemiancoding.com/sketch/ns">
<title>Location</title> 
    

</defs>
    <g id="Page-1" stroke="none" stroke-width="1" fill="none" fill-rule="evenodd" sketch:type="MSPage">
        <g id="Icon-Set" sketch:type="MSLayerGroup" transform="translate(-104.000000, -411.000000)" fill="rgb(95, 47, 71)">
            <path d="M116,426 C114.343,426 113,424.657 113,423 C113,421.343 114.343,420 116,420 C117.657,420 119,421.343 119,423 C119,424.657 117.657,426 116,426 L116,426 Z M116,418 C113.239,418 111,420.238 111,423 C111,425.762 113.239,428 116,428 C118.761,428 121,425.762 121,423 C121,420.238 118.761,418 116,418 L116,418 Z M116,440 C114.337,440.009 106,427.181 106,423 C106,417.478 110.477,413 116,413 C121.523,413 126,417.478 126,423 C126,427.125 117.637,440.009 116,440 L116,440 Z M116,411 C109.373,411 104,416.373 104,423 C104,428.018 114.005,443.011 116,443 C117.964,443.011 128,427.95 128,423 C128,416.373 122.627,411 116,411 L116,411 Z" id="location" sketch:type="MSShapeGroup">

</path>
        </g>
    </g>
</symbol>


</svg>


